<svg width="21" height="19" viewBox="0 0 21 19" fill="none" xmlns="http://www.w3.org/2000/svg">
<path d="M0 9.5C0 4.25329 4.25329 0 9.5 0C14.7467 0 19 4.25329 19 9.5C19 14.7467 14.7467 19 9.5 19C4.25329 19 0 14.7467 0 9.5Z" fill="white"/>
<path d="M19.8818 8.62068L19.7404 7.78809H18.8959H9.26484C7.26971 7.78809 5.65234 9.40546 5.65234 11.4006C5.65234 13.3957 7.26971 15.0131 9.26484 15.0131H17.9872H18.5974L18.8765 14.4705L19.2528 13.739L19.278 13.69L19.2977 13.6385L19.4829 13.1537C19.8263 12.2549 20.0023 11.3008 20.0023 10.3387V10.0511C20.0023 9.57173 19.962 9.09325 19.8818 8.62068Z" fill="white" stroke="#212128" stroke-width="2"/>
</svg>
